<svg id="Layer_1" data-name="Layer 1" xmlns="http://www.w3.org/2000/svg" viewBox="0 0 300 300"><defs><style>.cls-1{fill:#599636;}.cls-2{fill:#6cac48;}.cls-3{fill:#c2bfbf;}</style></defs><title>-icon-color</title><path class="cls-1" d="M149.07,1.31c2.28,4.23,5.37,10.91,8,15a44.81,44.81,0,0,0,6,7.49A208.85,208.85,0,0,1,181.8,45c13.52,17.75,22.64,37.45,29.15,58.79a144.39,144.39,0,0,1,6.19,39.9c.65,40.38-13.19,75.07-41.2,103.9a119.7,119.7,0,0,1-14.66,12.54c-2.77,0-4.07-2.12-5.21-4.07A33.53,33.53,0,0,1,152,244.29a56.14,56.14,0,0,1-1.3-14.82v-2.28C150.53,226.7,148.09,2.45,149.07,1.31Z"/><path class="cls-2" d="M149.07.82c-.33-.65-.65-.16-1,.16a15,15,0,0,1-2.77,9c-1.95,2.77-4.56,4.89-7.16,7.17-14.5,12.54-25.9,27.68-35,44.62-12,22.8-18.4,47.23-20.19,73-.82,9.28,2.93,42,5.86,51.46,8,25.08,22.31,46.09,40.88,64.33a175.39,175.39,0,0,0,14.49,12.38c1.47,0,1.63-1.31,2-2.28a44.37,44.37,0,0,0,1.46-6.35c1.47-8.15,2.28-16.29,3.26-24.43C150.86,228.82,149.56,1.64,149.07.82Z"/><path class="cls-3" d="M157.05,270c.32-3.74,2.12-6.84,4.07-9.93a10.42,10.42,0,0,1-4.56-4.24,31.35,31.35,0,0,1-2.44-5.37c-2.28-6.84-2.77-14-3.42-21v-4.23c-.82.65-1,6.19-1,7a163.61,163.61,0,0,1-2.93,22c-.49,2.93-.82,5.86-2.61,8.46a3,3,0,0,0,.17,1.14c2.93,8.64,3.74,17.43,4.23,26.39v3.25c0,3.91-.16,3.1,3.09,4.4,1.31.49,2.77.65,4.08,1.63,1,0,1.14-.81,1.14-1.47-.17-1.79-.49-3.58-.49-5.37,0-5.05-.17-9.93,0-15A38.59,38.59,0,0,1,157.05,270Z"/></svg>